<mxfile host="app.diagrams.net" modified="2023-04-13T08:46:03.921Z" agent="Mozilla/5.0 (Windows NT 10.0; Win64; x64) AppleWebKit/537.36 (KHTML, like Gecko) Chrome/112.0.0.0 Safari/537.36" etag="N2EhZgK5AWEx2KQMGT-H" version="21.1.2" type="device">
  <diagram id="R2lEEEUBdFMjLlhIrx00" name="Page-1">
    <mxGraphModel dx="1884" dy="430" grid="1" gridSize="10" guides="1" tooltips="1" connect="1" arrows="1" fold="1" page="1" pageScale="1" pageWidth="850" pageHeight="1100" math="0" shadow="0" extFonts="Permanent Marker^https://fonts.googleapis.com/css?family=Permanent+Marker">
      <root>
        <mxCell id="0" />
        <mxCell id="1" parent="0" />
        <mxCell id="0E3sNofXt4zqm1c2JQBu-5" value="User" style="swimlane;childLayout=stackLayout;horizontal=1;startSize=50;horizontalStack=0;rounded=1;fontSize=14;fontStyle=0;strokeWidth=2;resizeParent=0;resizeLast=1;shadow=0;dashed=0;align=center;arcSize=4;whiteSpace=wrap;html=1;" vertex="1" parent="1">
          <mxGeometry x="120" y="340" width="180" height="200" as="geometry" />
        </mxCell>
        <mxCell id="0E3sNofXt4zqm1c2JQBu-6" value="user_Id&amp;nbsp; - PK&amp;nbsp;&lt;br&gt;first_name&lt;br&gt;last_name&lt;br&gt;email&lt;br&gt;password&lt;br&gt;phone-number&lt;br&gt;role" style="align=left;strokeColor=none;fillColor=none;spacingLeft=4;fontSize=12;verticalAlign=top;resizable=0;rotatable=0;part=1;html=1;" vertex="1" parent="0E3sNofXt4zqm1c2JQBu-5">
          <mxGeometry y="50" width="180" height="150" as="geometry" />
        </mxCell>
        <mxCell id="0E3sNofXt4zqm1c2JQBu-11" value="Menu-Item" style="swimlane;childLayout=stackLayout;horizontal=1;startSize=50;horizontalStack=0;rounded=1;fontSize=14;fontStyle=0;strokeWidth=2;resizeParent=0;resizeLast=1;shadow=0;dashed=0;align=center;arcSize=4;whiteSpace=wrap;html=1;" vertex="1" parent="1">
          <mxGeometry x="390" y="625" width="180" height="190" as="geometry" />
        </mxCell>
        <mxCell id="0E3sNofXt4zqm1c2JQBu-12" value="Menu_Id - PK&lt;br&gt;Item_id - FK to Food-Item&lt;br&gt;R_Id - FK to Hotel Table&lt;br&gt;price_per_unit" style="align=left;strokeColor=none;fillColor=none;spacingLeft=4;fontSize=12;verticalAlign=top;resizable=0;rotatable=0;part=1;html=1;" vertex="1" parent="0E3sNofXt4zqm1c2JQBu-11">
          <mxGeometry y="50" width="180" height="140" as="geometry" />
        </mxCell>
        <mxCell id="0E3sNofXt4zqm1c2JQBu-13" value="Order" style="swimlane;childLayout=stackLayout;horizontal=1;startSize=50;horizontalStack=0;rounded=1;fontSize=14;fontStyle=0;strokeWidth=2;resizeParent=0;resizeLast=1;shadow=0;dashed=0;align=center;arcSize=4;whiteSpace=wrap;html=1;" vertex="1" parent="1">
          <mxGeometry x="390" y="340" width="180" height="200" as="geometry" />
        </mxCell>
        <mxCell id="0E3sNofXt4zqm1c2JQBu-14" value="order_id - PK&lt;br&gt;user_id - FK to User table&lt;br&gt;R_id - FK to Hotel table&lt;br&gt;date&lt;br&gt;delivery-address &lt;br&gt;price&lt;br&gt;order_time&lt;br&gt;expected_delivery_time&lt;br&gt;status" style="align=left;strokeColor=none;fillColor=none;spacingLeft=4;fontSize=12;verticalAlign=top;resizable=0;rotatable=0;part=1;html=1;" vertex="1" parent="0E3sNofXt4zqm1c2JQBu-13">
          <mxGeometry y="50" width="180" height="150" as="geometry" />
        </mxCell>
        <mxCell id="0E3sNofXt4zqm1c2JQBu-15" value="Order-Item" style="swimlane;childLayout=stackLayout;horizontal=1;startSize=50;horizontalStack=0;rounded=1;fontSize=14;fontStyle=0;strokeWidth=2;resizeParent=0;resizeLast=1;shadow=0;dashed=0;align=center;arcSize=4;whiteSpace=wrap;html=1;" vertex="1" parent="1">
          <mxGeometry x="650" y="340" width="190" height="200" as="geometry" />
        </mxCell>
        <mxCell id="0E3sNofXt4zqm1c2JQBu-16" value="order_Item_id - PK&lt;br&gt;order_id - FK to Orders Table&lt;br&gt;menu_id - FK to Menu-List Table&lt;br&gt;quantity" style="align=left;strokeColor=none;fillColor=none;spacingLeft=4;fontSize=12;verticalAlign=top;resizable=0;rotatable=0;part=1;html=1;" vertex="1" parent="0E3sNofXt4zqm1c2JQBu-15">
          <mxGeometry y="50" width="190" height="150" as="geometry" />
        </mxCell>
        <mxCell id="0E3sNofXt4zqm1c2JQBu-17" value="Restaurant/Hotel" style="swimlane;childLayout=stackLayout;horizontal=1;startSize=50;horizontalStack=0;rounded=1;fontSize=14;fontStyle=0;strokeWidth=2;resizeParent=0;resizeLast=1;shadow=0;dashed=0;align=center;arcSize=4;whiteSpace=wrap;html=1;" vertex="1" parent="1">
          <mxGeometry x="140" y="620" width="180" height="200" as="geometry" />
        </mxCell>
        <mxCell id="0E3sNofXt4zqm1c2JQBu-18" value="R_id - PK&lt;br&gt;owner_id FK to User table&lt;br&gt;R_name&lt;br&gt;R_Address&lt;br&gt;R_phone&lt;br&gt;R_email&lt;br&gt;R_rating" style="align=left;strokeColor=none;fillColor=none;spacingLeft=4;fontSize=12;verticalAlign=top;resizable=0;rotatable=0;part=1;html=1;" vertex="1" parent="0E3sNofXt4zqm1c2JQBu-17">
          <mxGeometry y="50" width="180" height="150" as="geometry" />
        </mxCell>
        <mxCell id="0E3sNofXt4zqm1c2JQBu-19" value="Payment" style="swimlane;childLayout=stackLayout;horizontal=1;startSize=50;horizontalStack=0;rounded=1;fontSize=14;fontStyle=0;strokeWidth=2;resizeParent=0;resizeLast=1;shadow=0;dashed=0;align=center;arcSize=4;whiteSpace=wrap;html=1;" vertex="1" parent="1">
          <mxGeometry x="630" y="110" width="190" height="200" as="geometry" />
        </mxCell>
        <mxCell id="0E3sNofXt4zqm1c2JQBu-20" value="payment_id - PK&lt;br&gt;order_id FK to Order&lt;br&gt;payment_type&lt;br&gt;payment_status" style="align=left;strokeColor=none;fillColor=none;spacingLeft=4;fontSize=12;verticalAlign=top;resizable=0;rotatable=0;part=1;html=1;" vertex="1" parent="0E3sNofXt4zqm1c2JQBu-19">
          <mxGeometry y="50" width="190" height="150" as="geometry" />
        </mxCell>
        <mxCell id="0E3sNofXt4zqm1c2JQBu-21" value="Food-Item" style="swimlane;childLayout=stackLayout;horizontal=1;startSize=50;horizontalStack=0;rounded=1;fontSize=14;fontStyle=0;strokeWidth=2;resizeParent=0;resizeLast=1;shadow=0;dashed=0;align=center;arcSize=4;whiteSpace=wrap;html=1;" vertex="1" parent="1">
          <mxGeometry x="640" y="630" width="160" height="180" as="geometry" />
        </mxCell>
        <mxCell id="0E3sNofXt4zqm1c2JQBu-22" value="Item_Id - PK&lt;br&gt;Item_Name&lt;br&gt;category&lt;br&gt;description" style="align=left;strokeColor=none;fillColor=none;spacingLeft=4;fontSize=12;verticalAlign=top;resizable=0;rotatable=0;part=1;html=1;" vertex="1" parent="0E3sNofXt4zqm1c2JQBu-21">
          <mxGeometry y="50" width="160" height="130" as="geometry" />
        </mxCell>
        <mxCell id="0E3sNofXt4zqm1c2JQBu-35" value="" style="edgeStyle=entityRelationEdgeStyle;fontSize=12;html=1;endArrow=ERoneToMany;rounded=0;exitX=1;exitY=0.391;exitDx=0;exitDy=0;exitPerimeter=0;entryX=0;entryY=0.2;entryDx=0;entryDy=0;entryPerimeter=0;" edge="1" parent="1" source="0E3sNofXt4zqm1c2JQBu-6" target="0E3sNofXt4zqm1c2JQBu-14">
          <mxGeometry width="100" height="100" relative="1" as="geometry">
            <mxPoint x="260" y="440" as="sourcePoint" />
            <mxPoint x="360" y="340" as="targetPoint" />
          </mxGeometry>
        </mxCell>
        <mxCell id="0E3sNofXt4zqm1c2JQBu-36" value="" style="edgeStyle=entityRelationEdgeStyle;fontSize=12;html=1;endArrow=ERoneToMany;rounded=0;exitX=0.367;exitY=0.996;exitDx=0;exitDy=0;exitPerimeter=0;" edge="1" parent="1" source="0E3sNofXt4zqm1c2JQBu-6">
          <mxGeometry width="100" height="100" relative="1" as="geometry">
            <mxPoint x="40" y="480" as="sourcePoint" />
            <mxPoint x="140" y="680" as="targetPoint" />
          </mxGeometry>
        </mxCell>
        <mxCell id="0E3sNofXt4zqm1c2JQBu-38" value="Feedback" style="swimlane;childLayout=stackLayout;horizontal=1;startSize=50;horizontalStack=0;rounded=1;fontSize=14;fontStyle=0;strokeWidth=2;resizeParent=0;resizeLast=1;shadow=0;dashed=0;align=center;arcSize=4;whiteSpace=wrap;html=1;" vertex="1" parent="1">
          <mxGeometry x="-130" y="560" width="180" height="160" as="geometry" />
        </mxCell>
        <mxCell id="0E3sNofXt4zqm1c2JQBu-39" value="feedback_id - PK&lt;br&gt;R_id - FK to Restaurant Table&lt;br&gt;user_id - FK to User table&lt;br&gt;comment&amp;nbsp;&lt;br&gt;date" style="align=left;strokeColor=none;fillColor=none;spacingLeft=4;fontSize=12;verticalAlign=top;resizable=0;rotatable=0;part=1;html=1;" vertex="1" parent="0E3sNofXt4zqm1c2JQBu-38">
          <mxGeometry y="50" width="180" height="110" as="geometry" />
        </mxCell>
        <mxCell id="0E3sNofXt4zqm1c2JQBu-42" value="" style="edgeStyle=entityRelationEdgeStyle;fontSize=12;html=1;endArrow=ERmany;rounded=0;exitX=-0.015;exitY=0.338;exitDx=0;exitDy=0;exitPerimeter=0;entryX=1.015;entryY=0.085;entryDx=0;entryDy=0;entryPerimeter=0;" edge="1" parent="1" source="0E3sNofXt4zqm1c2JQBu-6" target="0E3sNofXt4zqm1c2JQBu-39">
          <mxGeometry width="100" height="100" relative="1" as="geometry">
            <mxPoint x="310" y="590" as="sourcePoint" />
            <mxPoint x="410" y="490" as="targetPoint" />
          </mxGeometry>
        </mxCell>
        <mxCell id="0E3sNofXt4zqm1c2JQBu-43" value="" style="edgeStyle=entityRelationEdgeStyle;fontSize=12;html=1;endArrow=ERoneToMany;rounded=0;exitX=0;exitY=0.5;exitDx=0;exitDy=0;entryX=1.015;entryY=0.648;entryDx=0;entryDy=0;entryPerimeter=0;" edge="1" parent="1" source="0E3sNofXt4zqm1c2JQBu-18" target="0E3sNofXt4zqm1c2JQBu-39">
          <mxGeometry width="100" height="100" relative="1" as="geometry">
            <mxPoint x="310" y="680" as="sourcePoint" />
            <mxPoint x="410" y="580" as="targetPoint" />
          </mxGeometry>
        </mxCell>
        <mxCell id="0E3sNofXt4zqm1c2JQBu-44" value="" style="edgeStyle=entityRelationEdgeStyle;fontSize=12;html=1;endArrow=ERoneToMany;rounded=0;exitX=1.026;exitY=0.449;exitDx=0;exitDy=0;exitPerimeter=0;entryX=-0.021;entryY=0.188;entryDx=0;entryDy=0;entryPerimeter=0;" edge="1" parent="1" source="0E3sNofXt4zqm1c2JQBu-14" target="0E3sNofXt4zqm1c2JQBu-16">
          <mxGeometry width="100" height="100" relative="1" as="geometry">
            <mxPoint x="410" y="590" as="sourcePoint" />
            <mxPoint x="510" y="490" as="targetPoint" />
          </mxGeometry>
        </mxCell>
        <mxCell id="0E3sNofXt4zqm1c2JQBu-45" value="" style="edgeStyle=entityRelationEdgeStyle;fontSize=12;html=1;endArrow=ERoneToMany;rounded=0;exitX=1;exitY=0.5;exitDx=0;exitDy=0;entryX=-0.011;entryY=0.136;entryDx=0;entryDy=0;entryPerimeter=0;" edge="1" parent="1" source="0E3sNofXt4zqm1c2JQBu-18" target="0E3sNofXt4zqm1c2JQBu-12">
          <mxGeometry width="100" height="100" relative="1" as="geometry">
            <mxPoint x="410" y="630" as="sourcePoint" />
            <mxPoint x="510" y="530" as="targetPoint" />
          </mxGeometry>
        </mxCell>
        <mxCell id="0E3sNofXt4zqm1c2JQBu-46" value="" style="edgeStyle=entityRelationEdgeStyle;fontSize=12;html=1;endArrow=ERoneToMany;rounded=0;exitX=1;exitY=0.167;exitDx=0;exitDy=0;exitPerimeter=0;entryX=-0.004;entryY=0.347;entryDx=0;entryDy=0;entryPerimeter=0;" edge="1" parent="1" source="0E3sNofXt4zqm1c2JQBu-13" target="0E3sNofXt4zqm1c2JQBu-20">
          <mxGeometry width="100" height="100" relative="1" as="geometry">
            <mxPoint x="350" y="360" as="sourcePoint" />
            <mxPoint x="450" y="260" as="targetPoint" />
          </mxGeometry>
        </mxCell>
        <mxCell id="0E3sNofXt4zqm1c2JQBu-47" value="" style="endArrow=none;html=1;rounded=0;entryX=0;entryY=0.313;entryDx=0;entryDy=0;entryPerimeter=0;exitX=1.015;exitY=0.321;exitDx=0;exitDy=0;exitPerimeter=0;" edge="1" parent="1" source="0E3sNofXt4zqm1c2JQBu-12" target="0E3sNofXt4zqm1c2JQBu-22">
          <mxGeometry relative="1" as="geometry">
            <mxPoint x="320" y="660" as="sourcePoint" />
            <mxPoint x="480" y="660" as="targetPoint" />
            <Array as="points">
              <mxPoint x="610" y="720" />
            </Array>
          </mxGeometry>
        </mxCell>
      </root>
    </mxGraphModel>
  </diagram>
</mxfile>
